%TF.GenerationSoftware,KiCad,Pcbnew,9.0.7*%
%TF.CreationDate,2026-04-13T16:42:33+01:00*%
%TF.ProjectId,audio_processor,61756469-6f5f-4707-926f-636573736f72,rev?*%
%TF.SameCoordinates,Original*%
%TF.FileFunction,Paste,Top*%
%TF.FilePolarity,Positive*%
%FSLAX46Y46*%
G04 Gerber Fmt 4.6, Leading zero omitted, Abs format (unit mm)*
G04 Created by KiCad (PCBNEW 9.0.7) date 2026-04-13 16:42:33*
%MOMM*%
%LPD*%
G01*
G04 APERTURE LIST*
G04 Aperture macros list*
%AMRoundRect*
0 Rectangle with rounded corners*
0 $1 Rounding radius*
0 $2 $3 $4 $5 $6 $7 $8 $9 X,Y pos of 4 corners*
0 Add a 4 corners polygon primitive as box body*
4,1,4,$2,$3,$4,$5,$6,$7,$8,$9,$2,$3,0*
0 Add four circle primitives for the rounded corners*
1,1,$1+$1,$2,$3*
1,1,$1+$1,$4,$5*
1,1,$1+$1,$6,$7*
1,1,$1+$1,$8,$9*
0 Add four rect primitives between the rounded corners*
20,1,$1+$1,$2,$3,$4,$5,0*
20,1,$1+$1,$4,$5,$6,$7,0*
20,1,$1+$1,$6,$7,$8,$9,0*
20,1,$1+$1,$8,$9,$2,$3,0*%
G04 Aperture macros list end*
%ADD10RoundRect,0.242500X0.402500X-0.242500X0.402500X0.242500X-0.402500X0.242500X-0.402500X-0.242500X0*%
%ADD11RoundRect,0.150000X0.150000X-0.650000X0.150000X0.650000X-0.150000X0.650000X-0.150000X-0.650000X0*%
%ADD12RoundRect,0.242500X0.242500X0.402500X-0.242500X0.402500X-0.242500X-0.402500X0.242500X-0.402500X0*%
%ADD13RoundRect,0.150000X0.650000X0.150000X-0.650000X0.150000X-0.650000X-0.150000X0.650000X-0.150000X0*%
%ADD14RoundRect,0.200000X-0.200000X-0.800000X0.200000X-0.800000X0.200000X0.800000X-0.200000X0.800000X0*%
%ADD15RoundRect,0.242500X-0.402500X0.242500X-0.402500X-0.242500X0.402500X-0.242500X0.402500X0.242500X0*%
%ADD16RoundRect,0.150000X-0.150000X0.650000X-0.150000X-0.650000X0.150000X-0.650000X0.150000X0.650000X0*%
%ADD17RoundRect,0.242500X-0.242500X-0.402500X0.242500X-0.402500X0.242500X0.402500X-0.242500X0.402500X0*%
%ADD18RoundRect,0.150000X-0.650000X-0.150000X0.650000X-0.150000X0.650000X0.150000X-0.650000X0.150000X0*%
%ADD19RoundRect,0.250000X-0.550000X0.250000X-0.550000X-0.250000X0.550000X-0.250000X0.550000X0.250000X0*%
G04 APERTURE END LIST*
D10*
%TO.C,U9*%
X241700000Y-100100000D03*
X243300000Y-100100000D03*
X241700000Y-98900000D03*
X243300000Y-98900000D03*
D11*
X240595000Y-102150000D03*
X241865000Y-102150000D03*
X243135000Y-102150000D03*
X244405000Y-102150000D03*
X244405000Y-96850000D03*
X243135000Y-96850000D03*
X241865000Y-96850000D03*
X240595000Y-96850000D03*
%TD*%
D12*
%TO.C,U5*%
X173250000Y-103935000D03*
X173250000Y-102335000D03*
X172050000Y-103935000D03*
X172050000Y-102335000D03*
D13*
X175300000Y-105040000D03*
X175300000Y-103770000D03*
X175300000Y-102500000D03*
X175300000Y-101230000D03*
X170000000Y-101230000D03*
X170000000Y-102500000D03*
X170000000Y-103770000D03*
X170000000Y-105040000D03*
%TD*%
D14*
%TO.C,J1*%
X119300000Y-81500000D03*
X123500000Y-81500000D03*
%TD*%
D12*
%TO.C,U8*%
X214050000Y-50800000D03*
X214050000Y-49200000D03*
X212850000Y-50800000D03*
X212850000Y-49200000D03*
D13*
X216100000Y-51905000D03*
X216100000Y-50635000D03*
X216100000Y-49365000D03*
X216100000Y-48095000D03*
X210800000Y-48095000D03*
X210800000Y-49365000D03*
X210800000Y-50635000D03*
X210800000Y-51905000D03*
%TD*%
D15*
%TO.C,U6*%
X272100000Y-101500000D03*
X270500000Y-101500000D03*
X272100000Y-102700000D03*
X270500000Y-102700000D03*
D16*
X273205000Y-99450000D03*
X271935000Y-99450000D03*
X270665000Y-99450000D03*
X269395000Y-99450000D03*
X269395000Y-104750000D03*
X270665000Y-104750000D03*
X271935000Y-104750000D03*
X273205000Y-104750000D03*
%TD*%
D10*
%TO.C,U10*%
X157700000Y-136100000D03*
X159300000Y-136100000D03*
X157700000Y-134900000D03*
X159300000Y-134900000D03*
D11*
X156595000Y-138150000D03*
X157865000Y-138150000D03*
X159135000Y-138150000D03*
X160405000Y-138150000D03*
X160405000Y-132850000D03*
X159135000Y-132850000D03*
X157865000Y-132850000D03*
X156595000Y-132850000D03*
%TD*%
D12*
%TO.C,U4*%
X255050000Y-92300000D03*
X255050000Y-90700000D03*
X253850000Y-92300000D03*
X253850000Y-90700000D03*
D13*
X257100000Y-93405000D03*
X257100000Y-92135000D03*
X257100000Y-90865000D03*
X257100000Y-89595000D03*
X251800000Y-89595000D03*
X251800000Y-90865000D03*
X251800000Y-92135000D03*
X251800000Y-93405000D03*
%TD*%
D17*
%TO.C,U7*%
X213250000Y-68795000D03*
X213250000Y-70395000D03*
X214450000Y-68795000D03*
X214450000Y-70395000D03*
D18*
X211200000Y-67690000D03*
X211200000Y-68960000D03*
X211200000Y-70230000D03*
X211200000Y-71500000D03*
X216500000Y-71500000D03*
X216500000Y-70230000D03*
X216500000Y-68960000D03*
X216500000Y-67690000D03*
%TD*%
D19*
%TO.C,Bypass1*%
X37500000Y-64000000D03*
X39800000Y-65750000D03*
X37500000Y-67500000D03*
%TD*%
D17*
%TO.C,U11*%
X161750000Y-121065000D03*
X161750000Y-122665000D03*
X162950000Y-121065000D03*
X162950000Y-122665000D03*
D18*
X159700000Y-119960000D03*
X159700000Y-121230000D03*
X159700000Y-122500000D03*
X159700000Y-123770000D03*
X165000000Y-123770000D03*
X165000000Y-122500000D03*
X165000000Y-121230000D03*
X165000000Y-119960000D03*
%TD*%
M02*
