M48
; DRILL file {KiCad 9.0.7} date 2026-04-13T16:42:40+0100
; FORMAT={-:-/ absolute / metric / decimal}
; #@! TF.CreationDate,2026-04-13T16:42:40+01:00
; #@! TF.GenerationSoftware,Kicad,Pcbnew,9.0.7
; #@! TF.FileFunction,Plated,1,2,PTH
FMAT,2
METRIC
; #@! TA.AperFunction,Plated,PTH,ViaDrill
T1C0.100
; #@! TA.AperFunction,Plated,PTH,ComponentDrill
T2C0.200
; #@! TA.AperFunction,Plated,PTH,ViaDrill
T3C0.300
; #@! TA.AperFunction,Plated,PTH,ComponentDrill
T4C0.700
; #@! TA.AperFunction,Plated,PTH,ComponentDrill
T5C0.800
; #@! TA.AperFunction,Plated,PTH,ComponentDrill
T6C1.000
; #@! TA.AperFunction,Plated,PTH,ComponentDrill
T7C1.200
; #@! TA.AperFunction,Plated,PTH,ComponentDrill
T8C1.400
; #@! TA.AperFunction,Plated,PTH,ComponentDrill
T9C2.000
%
G90
G05
T1
X226.974Y-90.974
X255.266Y-93.45
T2
X157.15Y-134.55
X157.15Y-136.45
X158.5Y-134.55
X158.5Y-136.45
X159.85Y-134.55
X159.85Y-136.45
X161.4Y-120.515
X161.4Y-121.865
X161.4Y-123.215
X163.3Y-120.515
X163.3Y-121.865
X163.3Y-123.215
X171.7Y-101.785
X171.7Y-103.135
X171.7Y-104.485
X173.6Y-101.785
X173.6Y-103.135
X173.6Y-104.485
X212.5Y-48.65
X212.5Y-50.0
X212.5Y-51.35
X212.9Y-68.245
X212.9Y-69.595
X212.9Y-70.945
X214.4Y-48.65
X214.4Y-50.0
X214.4Y-51.35
X214.8Y-68.245
X214.8Y-69.595
X214.8Y-70.945
X241.15Y-98.55
X241.15Y-100.45
X242.5Y-98.55
X242.5Y-100.45
X243.85Y-98.55
X243.85Y-100.45
X253.5Y-90.15
X253.5Y-91.5
X253.5Y-92.85
X255.4Y-90.15
X255.4Y-91.5
X255.4Y-92.85
X269.95Y-101.15
X269.95Y-103.05
X271.3Y-101.15
X271.3Y-103.05
X272.65Y-101.15
X272.65Y-103.05
T3
X159.7Y-122.5
X161.0Y-130.0
X175.3Y-102.5
X181.0Y-100.0
X211.2Y-71.5
X243.135Y-102.15
X257.0Y-92.0
X257.0Y-92.0
X257.1Y-93.405
T4
X210.88Y-101.5
X218.5Y-101.5
T5
X67.18Y-27.5
X69.92Y-52.5
X72.46Y-49.96
X75.0Y-52.5
X87.5Y-27.5
X113.69Y-147.5
X121.31Y-147.5
X126.88Y-152.5
X134.5Y-152.5
X197.42Y-107.5
X199.96Y-104.96
X202.5Y-107.5
X232.5Y-140.0
X235.04Y-137.46
X235.04Y-142.54
X236.96Y-120.96
X239.5Y-123.5
X242.04Y-120.96
T6
X135.5Y-126.5
X135.5Y-134.1
T7
X22.1Y-115.0
X22.5Y-137.5
X27.5Y-62.255
X27.5Y-92.735
X27.5Y-137.5
X37.1Y-137.5
X42.5Y-82.1
X42.5Y-107.5
X47.5Y-115.0
X52.5Y-72.5
X57.5Y-72.5
X62.5Y-137.5
X67.5Y-82.5
X67.5Y-126.5
X80.0Y-140.5
X85.0Y-140.5
X87.5Y-37.5
X90.0Y-107.5
X94.52Y-137.5
X95.0Y-55.0
X95.0Y-107.5
X105.0Y-67.18
X105.0Y-87.5
X112.9Y-37.5
X120.0Y-89.6
X120.0Y-115.0
X120.4Y-55.0
X121.0Y-30.0
X125.0Y-137.5
X130.0Y-100.0
X135.0Y-87.5
X140.0Y-87.5
X150.32Y-100.0
X154.6Y-70.0
X154.6Y-90.0
X155.0Y-112.5
X165.0Y-30.0
X167.5Y-150.0
X172.5Y-125.0
X175.0Y-27.5
X175.0Y-57.98
X180.0Y-70.0
X180.0Y-90.0
X180.4Y-112.5
X185.0Y-80.0
X192.5Y-92.5
X195.0Y-20.0
X195.0Y-64.0
X197.9Y-125.0
X202.5Y-122.5
X212.5Y-150.0
X215.0Y-80.0
X222.5Y-92.5
X222.5Y-137.5
X222.5Y-162.9
X227.9Y-122.5
X241.8Y-111.5
X242.1Y-132.5
X247.5Y-30.5
X247.5Y-75.5
X267.2Y-111.5
X267.5Y-132.5
T8
X87.5Y-69.6
X87.5Y-95.0
X114.6Y-70.0
X134.8Y-147.5
X140.0Y-70.0
X160.2Y-147.5
X212.3Y-110.0
X237.7Y-110.0
T9
X40.0Y-40.0
X50.0Y-40.0
M30
