%TF.GenerationSoftware,KiCad,Pcbnew,9.0.7*%
%TF.CreationDate,2026-04-13T16:42:33+01:00*%
%TF.ProjectId,audio_processor,61756469-6f5f-4707-926f-636573736f72,rev?*%
%TF.SameCoordinates,Original*%
%TF.FileFunction,Soldermask,Top*%
%TF.FilePolarity,Negative*%
%FSLAX46Y46*%
G04 Gerber Fmt 4.6, Leading zero omitted, Abs format (unit mm)*
G04 Created by KiCad (PCBNEW 9.0.7) date 2026-04-13 16:42:33*
%MOMM*%
%LPD*%
G01*
G04 APERTURE LIST*
G04 Aperture macros list*
%AMRoundRect*
0 Rectangle with rounded corners*
0 $1 Rounding radius*
0 $2 $3 $4 $5 $6 $7 $8 $9 X,Y pos of 4 corners*
0 Add a 4 corners polygon primitive as box body*
4,1,4,$2,$3,$4,$5,$6,$7,$8,$9,$2,$3,0*
0 Add four circle primitives for the rounded corners*
1,1,$1+$1,$2,$3*
1,1,$1+$1,$4,$5*
1,1,$1+$1,$6,$7*
1,1,$1+$1,$8,$9*
0 Add four rect primitives between the rounded corners*
20,1,$1+$1,$2,$3,$4,$5,0*
20,1,$1+$1,$4,$5,$6,$7,0*
20,1,$1+$1,$6,$7,$8,$9,0*
20,1,$1+$1,$8,$9,$2,$3,0*%
G04 Aperture macros list end*
%ADD10C,2.100000*%
%ADD11C,2.400000*%
%ADD12RoundRect,0.250001X-0.949999X0.949999X-0.949999X-0.949999X0.949999X-0.949999X0.949999X0.949999X0*%
%ADD13R,1.600000X1.600000*%
%ADD14C,1.600000*%
%ADD15RoundRect,0.250001X-0.949999X-0.949999X0.949999X-0.949999X0.949999X0.949999X-0.949999X0.949999X0*%
%ADD16RoundRect,0.150000X0.150000X-0.650000X0.150000X0.650000X-0.150000X0.650000X-0.150000X-0.650000X0*%
%ADD17R,3.200000X2.400000*%
%ADD18RoundRect,0.150000X0.650000X0.150000X-0.650000X0.150000X-0.650000X-0.150000X0.650000X-0.150000X0*%
%ADD19R,2.400000X3.200000*%
%ADD20RoundRect,0.200000X-0.200000X-0.800000X0.200000X-0.800000X0.200000X0.800000X-0.200000X0.800000X0*%
%ADD21C,1.440000*%
%ADD22RoundRect,0.250000X-1.750000X-1.750000X1.750000X-1.750000X1.750000X1.750000X-1.750000X1.750000X0*%
%ADD23C,4.000000*%
%ADD24C,2.800000*%
%ADD25C,1.400000*%
%ADD26RoundRect,0.150000X-0.150000X0.650000X-0.150000X-0.650000X0.150000X-0.650000X0.150000X0.650000X0*%
%ADD27RoundRect,0.250001X0.949999X0.949999X-0.949999X0.949999X-0.949999X-0.949999X0.949999X-0.949999X0*%
%ADD28RoundRect,0.250000X0.550000X0.550000X-0.550000X0.550000X-0.550000X-0.550000X0.550000X-0.550000X0*%
%ADD29RoundRect,0.250000X-0.550000X-0.550000X0.550000X-0.550000X0.550000X0.550000X-0.550000X0.550000X0*%
%ADD30RoundRect,0.250001X0.949999X-0.949999X0.949999X0.949999X-0.949999X0.949999X-0.949999X-0.949999X0*%
%ADD31RoundRect,0.150000X-0.650000X-0.150000X0.650000X-0.150000X0.650000X0.150000X-0.650000X0.150000X0*%
%ADD32RoundRect,0.250000X-0.550000X0.250000X-0.550000X-0.250000X0.550000X-0.250000X0.550000X0.250000X0*%
G04 APERTURE END LIST*
D10*
%TO.C,REF\u002A\u002A*%
X275000000Y-21000000D03*
%TD*%
%TO.C,REF\u002A\u002A*%
X277000000Y-158000000D03*
%TD*%
D11*
%TO.C,R12*%
X87500000Y-37500000D03*
X112900000Y-37500000D03*
%TD*%
D12*
%TO.C,C7*%
X195000000Y-20000000D03*
D11*
X195000000Y-64000000D03*
%TD*%
D13*
%TO.C,D3*%
X135500000Y-126500000D03*
D14*
X135500000Y-134100000D03*
%TD*%
D15*
%TO.C,C8*%
X52500000Y-72500000D03*
D11*
X57500000Y-72500000D03*
%TD*%
D16*
%TO.C,U9*%
X240595000Y-102150000D03*
X241865000Y-102150000D03*
X243135000Y-102150000D03*
X244405000Y-102150000D03*
X244405000Y-96850000D03*
X243135000Y-96850000D03*
X241865000Y-96850000D03*
X240595000Y-96850000D03*
D17*
X242500000Y-99500000D03*
%TD*%
D11*
%TO.C,R17*%
X27500000Y-62255000D03*
X27500000Y-92735000D03*
%TD*%
%TO.C,R3*%
X130000000Y-100000000D03*
X150320000Y-100000000D03*
%TD*%
D18*
%TO.C,U5*%
X175300000Y-105040000D03*
X175300000Y-103770000D03*
X175300000Y-102500000D03*
X175300000Y-101230000D03*
X170000000Y-101230000D03*
X170000000Y-102500000D03*
X170000000Y-103770000D03*
X170000000Y-105040000D03*
D19*
X172650000Y-103135000D03*
%TD*%
D20*
%TO.C,J1*%
X119300000Y-81500000D03*
X123500000Y-81500000D03*
%TD*%
D11*
%TO.C,R25*%
X242100000Y-132500000D03*
X267500000Y-132500000D03*
%TD*%
%TO.C,R8*%
X222500000Y-137500000D03*
X222500000Y-162900000D03*
%TD*%
D21*
%TO.C,RV2*%
X242040000Y-120960000D03*
X239500000Y-123500000D03*
X236960000Y-120960000D03*
%TD*%
D22*
%TO.C,C6*%
X40000000Y-40000000D03*
D23*
X50000000Y-40000000D03*
%TD*%
D24*
%TO.C,R6*%
X237700000Y-110000000D03*
X212300000Y-110000000D03*
%TD*%
D15*
%TO.C,C1*%
X135000000Y-87500000D03*
D11*
X140000000Y-87500000D03*
%TD*%
%TO.C,R26*%
X180000000Y-90000000D03*
X154600000Y-90000000D03*
%TD*%
%TO.C,R10*%
X180400000Y-112500000D03*
X155000000Y-112500000D03*
%TD*%
D12*
%TO.C,C11*%
X67500000Y-82500000D03*
D11*
X67500000Y-126500000D03*
%TD*%
%TO.C,R19*%
X94520000Y-137500000D03*
X125000000Y-137500000D03*
%TD*%
D24*
%TO.C,R22*%
X134800000Y-147500000D03*
X160200000Y-147500000D03*
%TD*%
D11*
%TO.C,R14*%
X105000000Y-87500000D03*
X105000000Y-67180000D03*
%TD*%
%TO.C,R9*%
X197900000Y-125000000D03*
X172500000Y-125000000D03*
%TD*%
%TO.C,R13*%
X95000000Y-55000000D03*
X120400000Y-55000000D03*
%TD*%
D15*
%TO.C,C13*%
X80000000Y-140500000D03*
D11*
X85000000Y-140500000D03*
%TD*%
%TO.C,R21*%
X42500000Y-82100000D03*
X42500000Y-107500000D03*
%TD*%
%TO.C,R5*%
X227900000Y-122500000D03*
X202500000Y-122500000D03*
%TD*%
D21*
%TO.C,RV3*%
X235040000Y-142540000D03*
X232500000Y-140000000D03*
X235040000Y-137460000D03*
%TD*%
D25*
%TO.C,R4*%
X218500000Y-101500000D03*
X210880000Y-101500000D03*
%TD*%
D15*
%TO.C,C9*%
X121000000Y-30000000D03*
D11*
X165000000Y-30000000D03*
%TD*%
D14*
%TO.C,R11*%
X87500000Y-27500000D03*
X67180000Y-27500000D03*
%TD*%
D15*
%TO.C,C10*%
X90000000Y-107500000D03*
D11*
X95000000Y-107500000D03*
%TD*%
D24*
%TO.C,R20*%
X87500000Y-95000000D03*
X87500000Y-69600000D03*
%TD*%
D18*
%TO.C,U8*%
X216100000Y-51905000D03*
X216100000Y-50635000D03*
X216100000Y-49365000D03*
X216100000Y-48095000D03*
X210800000Y-48095000D03*
X210800000Y-49365000D03*
X210800000Y-50635000D03*
X210800000Y-51905000D03*
D19*
X213450000Y-50000000D03*
%TD*%
D21*
%TO.C,RV4*%
X69920000Y-52500000D03*
X72460000Y-49960000D03*
X75000000Y-52500000D03*
%TD*%
D26*
%TO.C,U6*%
X273205000Y-99450000D03*
X271935000Y-99450000D03*
X270665000Y-99450000D03*
X269395000Y-99450000D03*
X269395000Y-104750000D03*
X270665000Y-104750000D03*
X271935000Y-104750000D03*
X273205000Y-104750000D03*
D17*
X271300000Y-102100000D03*
%TD*%
D24*
%TO.C,R2*%
X114600000Y-70000000D03*
X140000000Y-70000000D03*
%TD*%
D11*
%TO.C,R23*%
X22100000Y-115000000D03*
X47500000Y-115000000D03*
%TD*%
D16*
%TO.C,U10*%
X156595000Y-138150000D03*
X157865000Y-138150000D03*
X159135000Y-138150000D03*
X160405000Y-138150000D03*
X160405000Y-132850000D03*
X159135000Y-132850000D03*
X157865000Y-132850000D03*
X156595000Y-132850000D03*
D17*
X158500000Y-135500000D03*
%TD*%
D18*
%TO.C,U4*%
X257100000Y-93405000D03*
X257100000Y-92135000D03*
X257100000Y-90865000D03*
X257100000Y-89595000D03*
X251800000Y-89595000D03*
X251800000Y-90865000D03*
X251800000Y-92135000D03*
X251800000Y-93405000D03*
D19*
X254450000Y-91500000D03*
%TD*%
D15*
%TO.C,C12*%
X22500000Y-137500000D03*
D11*
X27500000Y-137500000D03*
%TD*%
D15*
%TO.C,C2*%
X185000000Y-80000000D03*
D11*
X215000000Y-80000000D03*
%TD*%
D27*
%TO.C,C5*%
X212500000Y-150000000D03*
D11*
X167500000Y-150000000D03*
%TD*%
D28*
%TO.C,D2*%
X121310000Y-147500000D03*
D14*
X113690000Y-147500000D03*
%TD*%
D29*
%TO.C,D1*%
X126880000Y-152500000D03*
D14*
X134500000Y-152500000D03*
%TD*%
D11*
%TO.C,R24*%
X62500000Y-137500000D03*
X37100000Y-137500000D03*
%TD*%
%TO.C,R15*%
X154600000Y-70000000D03*
X180000000Y-70000000D03*
%TD*%
%TO.C,R16*%
X175000000Y-57980000D03*
X175000000Y-27500000D03*
%TD*%
D30*
%TO.C,C4*%
X247500000Y-75500000D03*
D11*
X247500000Y-30500000D03*
%TD*%
%TO.C,R1*%
X120000000Y-89600000D03*
X120000000Y-115000000D03*
%TD*%
D31*
%TO.C,U7*%
X211200000Y-67690000D03*
X211200000Y-68960000D03*
X211200000Y-70230000D03*
X211200000Y-71500000D03*
X216500000Y-71500000D03*
X216500000Y-70230000D03*
X216500000Y-68960000D03*
X216500000Y-67690000D03*
D19*
X213850000Y-69595000D03*
%TD*%
D11*
%TO.C,R7*%
X267200000Y-111500000D03*
X241800000Y-111500000D03*
%TD*%
D32*
%TO.C,Bypass1*%
X37500000Y-64000000D03*
X39800000Y-65750000D03*
X37500000Y-67500000D03*
%TD*%
D27*
%TO.C,C3*%
X222500000Y-92500000D03*
D11*
X192500000Y-92500000D03*
%TD*%
D31*
%TO.C,U11*%
X159700000Y-119960000D03*
X159700000Y-121230000D03*
X159700000Y-122500000D03*
X159700000Y-123770000D03*
X165000000Y-123770000D03*
X165000000Y-122500000D03*
X165000000Y-121230000D03*
X165000000Y-119960000D03*
D19*
X162350000Y-121865000D03*
%TD*%
D21*
%TO.C,RV1*%
X197420000Y-107500000D03*
X199960000Y-104960000D03*
X202500000Y-107500000D03*
%TD*%
M02*
